<?xml version="1.0" encoding="utf-8"?>
<!-- Generator: Adobe Illustrator 19.2.1, SVG Export Plug-In . SVG Version: 6.00 Build 0)  -->
<svg version="1.1" id="Layer_1" xmlns="http://www.w3.org/2000/svg" xmlns:xlink="http://www.w3.org/1999/xlink" x="0px" y="0px"
	 viewBox="0 0 1081 1080" style="enable-background:new 0 0 1081 1080;" xml:space="preserve">
<style type="text/css">
	.st0{fill:#FFFFFF;}
	.st1{fill:none;stroke:#FFFFFF;stroke-width:7;stroke-miterlimit:10;}
</style>
<g>
	<path class="st0" d="M540.5,254.2c-76.1,0-137.8,61.7-137.8,137.8c0,25.7,7.1,49.8,19.3,70.4l-17.4,70.1l69.1-19.9
		c19.8,11,42.6,17.3,66.8,17.3c76.1,0,137.8-61.7,137.8-137.8S616.6,254.2,540.5,254.2z M542.1,507c-24.1,0-46.4-7.5-64.8-20.1
		L438,498.2l10.1-40.5c-12.8-18.5-20.3-40.9-20.3-65.1c0-63.2,51.2-114.4,114.4-114.4s114.3,51.2,114.3,114.4S605.3,507,542.1,507z"
		/>
	<path class="st0" d="M505.7,381.2c1.6-1.8,3.2-3.7,4.8-5.5c2.7-3.1,6.7-6.1,6.9-10.6c0.2-4.3-1.3-8.6-2.9-12.5c-1-2.5-2-5-2.9-7.5
		c-1.7-4.6-4-11-6.5-13.7c-3.4-3.6-9.3-4.4-13.9-2.2c0,0-27,13-18.7,39c0,0,16.1,73.3,97.3,88.4c0,0,29.1,4.2,36.9-13.5
		c1.7-3.8,2.8-9.2,2.5-13.3c-0.3-4-3.1-6.7-6.4-8.6c-4.3-2.5-8.1-4.8-12.9-7.2c-4.2-2.1-9.1-5.2-14-3.8c-3.6,1-6.1,4.2-8.5,6.8
		c-3.2,3.4-6.4,6.6-9.6,10C557.7,426.9,516.6,411.8,505.7,381.2z"/>
</g>
<g>
	<path class="st0" d="M126.4,613.8h13.9v27.1h24v-27.1h13.8v71.8h-13.8v-31.5h-24v31.5h-13.9V613.8z"/>
	<path class="st0" d="M232.2,632.5h13.3v53.1h-13.3V680c-2.6,2.5-5.2,4.3-7.8,5.3c-2.6,1.1-5.5,1.6-8.5,1.6c-6.9,0-12.8-2.7-17.8-8
		s-7.5-11.9-7.5-19.8c0-8.2,2.4-14.9,7.3-20.2c4.8-5.2,10.7-7.9,17.7-7.9c3.2,0,6.2,0.6,9,1.8s5.4,3,7.8,5.4v-5.7L232.2,632.5
		L232.2,632.5z M218.2,643.5c-4.1,0-7.5,1.5-10.3,4.4s-4.1,6.6-4.1,11.2s1.4,8.4,4.2,11.3c2.8,3,6.2,4.4,10.2,4.4
		c4.2,0,7.7-1.5,10.4-4.4c2.8-2.9,4.1-6.7,4.1-11.5c0-4.6-1.4-8.4-4.1-11.2C225.9,644.9,222.4,643.5,218.2,643.5z"/>
	<path class="st0" d="M285.9,668.6l-1.4-1.6l-15.8,18.7H251l24-27.3l-23.7-25.9h16.3l18.4,19.9v-19.9h13.3v19.9l18.3-19.9h16.3
		l-23.7,25.9l24,27.2h-17.7l-15.8-18.8l-1.4,1.7v17.1H286v-17L285.9,668.6L285.9,668.6z"/>
	<path class="st0" d="M372.1,666l16.3-33.5h8.8l13.3,53.1h-13l-7.1-31.2l-15.8,31.2h-5.5l-15.5-31.2l-7.2,31.2h-13l13.3-53.1h8.8
		L372.1,666z"/>
	<path class="st0" d="M425,685.7h-7.1v-53.1h13v31.2l27.2-31.2h6.4v53.1h-13v-30.6L425,685.7z"/>
	<path class="st0" d="M519.2,651.7h19.9v-19.1h13.4v53.1h-13.3v-22h-19.9v22H506v-53.1h13.3L519.2,651.7L519.2,651.7z"/>
	<path class="st0" d="M605.1,632.5h13.4v53.1h-13.3V680c-2.6,2.5-5.2,4.3-7.8,5.3c-2.6,1.1-5.5,1.6-8.5,1.6c-6.9,0-12.8-2.7-17.8-8
		s-7.5-11.9-7.5-19.8c0-8.2,2.4-14.9,7.3-20.2c4.8-5.2,10.7-7.9,17.7-7.9c3.2,0,6.2,0.6,9,1.8s5.4,3,7.8,5.4v-5.7L605.1,632.5
		L605.1,632.5z M591.1,643.5c-4.1,0-7.5,1.5-10.3,4.4s-4.1,6.6-4.1,11.2s1.4,8.4,4.2,11.3c2.8,3,6.2,4.4,10.2,4.4
		c4.2,0,7.7-1.5,10.4-4.4c2.8-2.9,4.1-6.7,4.1-11.5c0-4.6-1.4-8.4-4.1-11.2C598.8,644.9,595.4,643.5,591.1,643.5z"/>
	<path class="st0" d="M697.3,664.7h-17.8v-11.6h17.8c-3.1-6.4-8.2-9.6-15.5-9.6c-5.1,0-9.7,2-13.8,5.9l-11.1-6.1
		c6.6-8.1,14.8-12.1,24.5-12.1c8.8,0,16,2.7,21.6,8s8.5,12,8.5,20.2c0,7.8-2.7,14.4-8.1,19.8c-5.4,5.3-12.7,8-21.8,8
		c-9.7,0-17.8-3.7-24.1-11.1l10.5-7.2c3.3,4.2,7.9,6.3,14.1,6.3C689.3,675.1,694.4,671.6,697.3,664.7z"/>
	<path class="st0" d="M722.3,632.5h13.3v19.9l18.4-19.9h16.3l-23.7,25.9l24,27.2h-17.7l-15.8-18.8l-1.4,1.7v17.1h-13.3L722.3,632.5
		L722.3,632.5z"/>
	<path class="st0" d="M789.3,632.5v5.9c2.4-2.4,5-4.2,7.8-5.4s5.8-1.8,9-1.8c6.9,0,12.8,2.6,17.7,7.9c4.8,5.2,7.3,12,7.3,20.2
		c0,7.9-2.5,14.5-7.5,19.8s-11,8-17.8,8c-3.1,0-5.9-0.5-8.5-1.6s-5.3-2.9-7.9-5.3v25h-13.2v-72.6L789.3,632.5L789.3,632.5z
		 M803.3,643.5c-4.2,0-7.7,1.4-10.4,4.3c-2.8,2.9-4.2,6.6-4.2,11.2c0,4.7,1.4,8.5,4.2,11.5c2.8,2.9,6.3,4.4,10.4,4.4
		c4.1,0,7.5-1.5,10.3-4.4s4.2-6.7,4.2-11.3s-1.4-8.3-4.1-11.2S807.5,643.5,803.3,643.5z"/>
	<path class="st0" d="M881.3,632.5h13.3v53.1h-13.3V680c-2.6,2.5-5.2,4.3-7.8,5.3c-2.6,1.1-5.5,1.6-8.5,1.6c-6.9,0-12.8-2.7-17.8-8
		s-7.5-11.9-7.5-19.8c0-8.2,2.4-14.9,7.3-20.2c4.8-5.2,10.7-7.9,17.7-7.9c3.2,0,6.2,0.6,9,1.8s5.4,3,7.8,5.4v-5.7L881.3,632.5
		L881.3,632.5z M867.3,643.5c-4.1,0-7.5,1.5-10.3,4.4s-4.1,6.6-4.1,11.2s1.4,8.4,4.2,11.3c2.8,3,6.2,4.4,10.2,4.4
		c4.2,0,7.7-1.5,10.4-4.4c2.8-2.9,4.1-6.7,4.1-11.5c0-4.6-1.4-8.4-4.1-11.2C875,644.9,871.5,643.5,867.3,643.5z"/>
	<path class="st0" d="M921.4,651.7h19.9v-19.1h13.3v53.1h-13.3v-22h-19.9v22h-13.3v-53.1h13.3V651.7z"/>
	<path class="st0" d="M130.3,820.9h-3.9v-9.7h3.3l15.7-36.3h1.4l16.6,36.3h3.1v9.7h-4v-6h-32.2V820.9z M134.2,811.2h24.4l-12.5-28.1
		L134.2,811.2z"/>
	<path class="st0" d="M196.5,814.9h-4l-9.9-21.6l-9.8,21.6h-4.1l13.6-29.6h0.7L196.5,814.9z"/>
	<path class="st0" d="M214.8,801.7h-2.7l-8.4,13.2h-4.1l8.9-13.6c-2.2-0.3-4-1.1-5.4-2.5s-2.1-3.2-2.1-5.2c0-2.6,0.8-4.6,2.4-6.1
		c1.6-1.4,3.7-2.1,6.2-2.1h9V815h-3.8L214.8,801.7L214.8,801.7z M214.8,788.6h-2.5c-2.4,0-4.1,0.2-4.9,0.5c-0.8,0.3-1.5,0.8-2,1.6
		s-0.7,1.8-0.7,3s0.3,2.2,1,3c0.6,0.8,1.3,1.3,2.1,1.5s2.3,0.3,4.5,0.3h2.5L214.8,788.6L214.8,788.6z"/>
	<path class="st0" d="M242.6,785.3h24.8v29.6h-3.8v-26h-17.2v26h-3.8V785.3z"/>
	<path class="st0" d="M300.8,805.1l3.2,1.7c-1.1,2.1-2.3,3.7-3.6,5c-1.4,1.3-2.9,2.2-4.7,2.9c-1.7,0.7-3.7,1-5.9,1
		c-4.8,0-8.6-1.6-11.3-4.7c-2.7-3.2-4.1-6.7-4.1-10.7c0-3.8,1.2-7.1,3.5-10c2.9-3.7,6.8-5.6,11.7-5.6c5,0,9.1,1.9,12.1,5.7
		c2.1,2.7,3.2,6.1,3.3,10.1h-26.6c0.1,3.4,1.2,6.3,3.3,8.5c2.1,2.2,4.7,3.3,7.9,3.3c1.5,0,3-0.3,4.4-0.8s2.6-1.2,3.6-2.1
		C298.6,808.4,299.6,807,300.8,805.1z M300.8,797.1c-0.5-2-1.2-3.7-2.2-4.9s-2.3-2.2-3.9-2.9s-3.3-1.1-5-1.1c-2.9,0-5.4,0.9-7.5,2.8
		c-1.5,1.4-2.7,3.4-3.5,6.1L300.8,797.1L300.8,797.1z"/>
	<path class="st0" d="M312.2,785.3h3.8v5.4c1.5-2.1,3.2-3.6,5.2-4.7c2-1,4.1-1.6,6.5-1.6c4.2,0,7.8,1.5,10.8,4.5s4.5,6.7,4.5,10.9
		c0,4.4-1.5,8-4.4,11.1c-3,3-6.5,4.6-10.7,4.6c-2.4,0-4.5-0.5-6.5-1.5s-3.8-2.4-5.4-4.4v15.9h-3.8V785.3z M327.4,788.2
		c-3.3,0-6.1,1.2-8.3,3.5c-2.3,2.3-3.4,5.2-3.4,8.6c0,2.2,0.5,4.3,1.5,6.1s2.4,3.2,4.3,4.3s3.8,1.6,5.9,1.6c2,0,4-0.5,5.8-1.6
		s3.2-2.5,4.3-4.4c1.1-1.9,1.6-3.9,1.6-6s-0.5-4.1-1.6-6s-2.5-3.3-4.3-4.4C331.5,788.8,329.5,788.2,327.4,788.2z"/>
	<path class="st0" d="M375,805.1l3.2,1.7c-1.1,2.1-2.3,3.7-3.6,5c-1.4,1.3-2.9,2.2-4.7,2.9c-1.7,0.7-3.7,1-5.9,1
		c-4.8,0-8.6-1.6-11.3-4.7c-2.7-3.2-4.1-6.7-4.1-10.7c0-3.8,1.2-7.1,3.5-10c2.9-3.7,6.8-5.6,11.7-5.6c5,0,9.1,1.9,12.1,5.7
		c2.1,2.7,3.2,6.1,3.3,10.1h-26.6c0.1,3.4,1.2,6.3,3.3,8.5c2.1,2.2,4.7,3.3,7.9,3.3c1.5,0,3-0.3,4.4-0.8s2.6-1.2,3.6-2.1
		C372.8,808.4,373.9,807,375,805.1z M375,797.1c-0.5-2-1.2-3.7-2.2-4.9s-2.3-2.2-3.9-2.9s-3.3-1.1-5-1.1c-2.9,0-5.4,0.9-7.5,2.8
		c-1.5,1.4-2.7,3.4-3.5,6.1L375,797.1L375,797.1z"/>
	<path class="st0" d="M382.9,785.3h4.6l7.9,10.8l7.8-10.8h4.6l-10.1,14l11.4,15.6h-4.6l-9-12.4l-9,12.4H382l11.2-15.6L382.9,785.3z"
		/>
	<path class="st0" d="M427.1,784.6c4.6,0,8.3,1.7,11.3,5c2.7,3,4.1,6.6,4.1,10.7s-1.4,7.7-4.3,10.8s-6.6,4.6-11.1,4.6
		s-8.3-1.5-11.1-4.6c-2.9-3.1-4.3-6.7-4.3-10.8s1.4-7.7,4.1-10.7C418.7,786.2,422.5,784.6,427.1,784.6z M427,788.3
		c-3.2,0-5.9,1.2-8.2,3.5c-2.3,2.3-3.4,5.2-3.4,8.5c0,2.1,0.5,4.1,1.6,6c1,1.8,2.4,3.3,4.2,4.3c1.8,1,3.7,1.5,5.8,1.5
		c2.1,0,4-0.5,5.8-1.5s3.2-2.4,4.2-4.3s1.6-3.8,1.6-6c0-3.3-1.1-6.1-3.4-8.5C432.9,789.5,430.2,788.3,427,788.3z"/>
	<path class="st0" d="M449.8,811.7l11.4-26.4h2l11.4,26.4h3.6v7h-3.7v-3.8H450v3.9h-3.8v-7.2L449.8,811.7L449.8,811.7z M462.1,791.2
		l-8.7,20.5h17L462.1,791.2z"/>
	<path class="st0" d="M512.7,785.3v29.6h-3.8v-5.1c-1.6,1.9-3.4,3.4-5.4,4.4s-4.2,1.5-6.5,1.5c-4.2,0-7.8-1.5-10.7-4.6
		c-3-3-4.4-6.7-4.4-11.1c0-4.3,1.5-7.9,4.5-10.9s6.6-4.5,10.8-4.5c2.4,0,4.6,0.5,6.6,1.6c2,1,3.7,2.6,5.2,4.7v-5.4h3.7V785.3z
		 M497.5,788.2c-2.1,0-4.1,0.5-5.9,1.6s-3.2,2.5-4.3,4.4c-1.1,1.9-1.6,3.9-1.6,6s0.5,4.1,1.6,6s2.5,3.4,4.3,4.4
		c1.8,1.1,3.7,1.6,5.8,1.6c2.1,0,4.1-0.5,5.9-1.6c1.9-1.1,3.3-2.5,4.3-4.3s1.5-3.8,1.5-6.1c0-3.4-1.1-6.3-3.4-8.6
		S500.8,788.2,497.5,788.2z"/>
	<path class="st0" d="M545.3,814.9h-8.6v-29.6h8.5c3.2,0,5.6,0.7,7,2.2s2.1,3.2,2.1,5.2c0,3-1.3,5-4,6.1c3.8,1.4,5.8,4,5.8,7.9
		C556.1,812.2,552.5,814.9,545.3,814.9z M540.5,788.6v9.2h2.5c2.3,0,3.7-0.1,4.4-0.3s1.3-0.6,1.9-1.3c0.6-0.7,0.9-1.7,0.9-2.8
		c0-1.2-0.3-2.3-1-3.1c-0.6-0.8-1.3-1.3-2-1.5c-0.7-0.1-2.1-0.2-4.3-0.2L540.5,788.6L540.5,788.6z M540.5,801.4v10.4h4.1
		c1.9,0,3.3-0.1,4.1-0.4c0.8-0.2,1.5-0.8,2.1-1.6s0.9-1.8,0.9-3.1c0-1.6-0.5-2.9-1.5-3.9s-2.4-1.4-4-1.4H540.5z"/>
	<path class="st0" d="M591.4,801.6h-6.7c-3,0-5.3-0.8-6.7-2.3c-1.5-1.6-2.2-3.7-2.2-6.5v-7.4h3.7v5.4c0,3.4,0.5,5.6,1.5,6.4
		s2.6,1.2,4.8,1.2h5.6v-13h3.8V815h-3.8L591.4,801.6L591.4,801.6z"/>
	<path class="st0" d="M633.2,785.3v29.6h-3.8v-5.1c-1.6,1.9-3.4,3.4-5.4,4.4s-4.2,1.5-6.5,1.5c-4.2,0-7.8-1.5-10.7-4.6
		c-3-3-4.4-6.7-4.4-11.1c0-4.3,1.5-7.9,4.5-10.9s6.6-4.5,10.8-4.5c2.4,0,4.6,0.5,6.6,1.6c2,1,3.7,2.6,5.2,4.7v-5.4h3.7L633.2,785.3
		L633.2,785.3z M618,788.2c-2.1,0-4.1,0.5-5.9,1.6s-3.2,2.5-4.3,4.4s-1.6,3.9-1.6,6s0.5,4.1,1.6,6s2.5,3.4,4.3,4.4
		c1.8,1.1,3.7,1.6,5.8,1.6s4.1-0.5,5.9-1.6c1.9-1.1,3.3-2.5,4.3-4.3s1.5-3.8,1.5-6.1c0-3.4-1.1-6.3-3.4-8.6
		C624,789.4,621.3,788.2,618,788.2z"/>
	<path class="st0" d="M638.4,785.3h19.5v3.3h-7.8v26.3h-3.8v-26.3h-7.8v-3.3H638.4z"/>
	<path class="st0" d="M676.9,774.9h4.1l8.2,28.8l11.5-28.8h0.8l11.3,28.8l8.3-28.8h4.1l-11.5,40H713l-11.9-30.3L689,814.9h-0.7
		L676.9,774.9z"/>
	<path class="st0" d="M732,773.9h3.8v16.7c1.5-2,3.2-3.5,5.1-4.6s3.9-1.5,6-1.5c2.2,0,4.2,0.6,5.9,1.7s3,2.6,3.8,4.5
		s1.2,4.9,1.2,8.9v15.2H754v-14.1c0-3.4-0.1-5.7-0.4-6.8c-0.5-2-1.3-3.4-2.6-4.4c-1.2-1-2.9-1.5-4.9-1.5c-2.3,0-4.4,0.8-6.2,2.3
		s-3,3.4-3.6,5.7c-0.4,1.5-0.5,4.1-0.5,8.1V815H732V773.9z"/>
	<path class="st0" d="M795.5,785.3v29.6h-3.8v-5.1c-1.6,1.9-3.4,3.4-5.4,4.4s-4.2,1.5-6.5,1.5c-4.2,0-7.8-1.5-10.7-4.6
		c-3-3-4.4-6.7-4.4-11.1c0-4.3,1.5-7.9,4.5-10.9s6.6-4.5,10.8-4.5c2.4,0,4.6,0.5,6.6,1.6c2,1,3.7,2.6,5.2,4.7v-5.4h3.7L795.5,785.3
		L795.5,785.3z M780.2,788.2c-2.1,0-4.1,0.5-5.9,1.6s-3.2,2.5-4.3,4.4s-1.6,3.9-1.6,6s0.5,4.1,1.6,6s2.5,3.4,4.3,4.4
		c1.8,1.1,3.7,1.6,5.8,1.6s4.1-0.5,5.9-1.6c1.9-1.1,3.3-2.5,4.3-4.3s1.5-3.8,1.5-6.1c0-3.4-1.1-6.3-3.4-8.6
		C786.1,789.3,783.5,788.2,780.2,788.2z"/>
	<path class="st0" d="M807.3,774.3h3.8v11h6v3.3h-6v26.3h-3.8v-26.3h-5.2v-3.3h5.2V774.3z"/>
	<path class="st0" d="M837.8,788.6l-2.4,2.5c-2-2-4-3-6-3c-1.2,0-2.3,0.4-3.2,1.2s-1.3,1.8-1.3,2.9c0,1,0.4,1.9,1.1,2.7
		c0.7,0.9,2.3,1.9,4.6,3.1c2.8,1.5,4.8,2.9,5.8,4.2c1,1.4,1.5,2.9,1.5,4.7c0,2.4-0.9,4.5-2.6,6.2c-1.7,1.7-3.8,2.5-6.4,2.5
		c-1.7,0-3.3-0.4-4.9-1.1c-1.6-0.7-2.8-1.8-3.9-3.1l2.4-2.7c1.9,2.2,4,3.3,6.2,3.3c1.5,0,2.8-0.5,3.9-1.5c1.1-1,1.6-2.1,1.6-3.5
		c0-1.1-0.4-2.1-1.1-2.9c-0.7-0.8-2.3-1.9-4.8-3.2c-2.7-1.4-4.5-2.7-5.5-4.1c-1-1.3-1.4-2.9-1.4-4.6c0-2.2,0.8-4.1,2.3-5.6
		s3.5-2.2,5.8-2.2C832.3,784.6,835,785.9,837.8,788.6z"/>
	<path class="st0" d="M861.5,774.9l18.7,40h-4.3l-6.3-13.2h-17.2l-6.2,13.2h-4.5l18.9-40H861.5z M861,783.4l-6.9,14.5h13.7
		L861,783.4z"/>
	<path class="st0" d="M885.8,785.3h3.8v5.4c1.5-2.1,3.2-3.6,5.2-4.7c2-1,4.1-1.6,6.5-1.6c4.2,0,7.8,1.5,10.8,4.5s4.5,6.7,4.5,10.9
		c0,4.4-1.5,8-4.4,11.1c-3,3-6.5,4.6-10.7,4.6c-2.4,0-4.5-0.5-6.5-1.5s-3.8-2.4-5.4-4.4v15.9h-3.8L885.8,785.3L885.8,785.3z
		 M901,788.2c-3.3,0-6.1,1.2-8.3,3.5c-2.3,2.3-3.4,5.2-3.4,8.6c0,2.2,0.5,4.3,1.5,6.1s2.4,3.2,4.3,4.3c1.9,1.1,3.8,1.6,5.9,1.6
		c2,0,4-0.5,5.8-1.6s3.2-2.5,4.3-4.4s1.6-3.9,1.6-6s-0.5-4.1-1.6-6s-2.5-3.3-4.3-4.4C905.1,788.8,903.1,788.2,901,788.2z"/>
	<path class="st0" d="M923.8,785.3h3.8v5.4c1.5-2.1,3.2-3.6,5.2-4.7c2-1,4.1-1.6,6.5-1.6c4.2,0,7.8,1.5,10.8,4.5s4.5,6.7,4.5,10.9
		c0,4.4-1.5,8-4.4,11.1c-3,3-6.5,4.6-10.7,4.6c-2.4,0-4.5-0.5-6.5-1.5s-3.8-2.4-5.4-4.4v15.9h-3.8L923.8,785.3L923.8,785.3z
		 M939,788.2c-3.3,0-6.1,1.2-8.3,3.5c-2.3,2.3-3.4,5.2-3.4,8.6c0,2.2,0.5,4.3,1.5,6.1s2.4,3.2,4.3,4.3c1.9,1.1,3.8,1.6,5.9,1.6
		c2,0,4-0.5,5.8-1.6s3.2-2.5,4.3-4.4s1.6-3.9,1.6-6s-0.5-4.1-1.6-6s-2.5-3.3-4.3-4.4C943.1,788.8,941.1,788.2,939,788.2z"/>
</g>
<line class="st1" x1="410.7" y1="734.8" x2="670.3" y2="734.8"/>
</svg>
